<svg xmlns="http://www.w3.org/2000/svg" xmlns:xlink="http://www.w3.org/1999/xlink" viewBox="0 0 265.95 88.82"><defs>


<style>
    .cls-4{fill:url(#Degradado_sin_nombre_35);}
    .cls-5{fill:url(#Degradado_sin_nombre_34);}
    .cls-6{fill:url(#Degradado_sin_nombre_26);}
    .cls-7{fill:url(#Degradado_sin_nombre_28);}
    .cls-8{fill:url(#Degradado_sin_nombre_21);}
    .cls-10{fill:url(#Degradado_sin_nombre_21-2);}
    .cls-11{fill:url(#Degradado_sin_nombre_21-3);}
  </style>


<linearGradient id="Degradado_sin_nombre_35" x1="4.82" y1="43.15" x2="9.22" y2="35.52" gradientUnits="userSpaceOnUse"><stop offset="0" stop-color="#fff" stop-opacity="0"></stop><stop offset="0.46" stop-color="#ddd" stop-opacity="0.1"></stop><stop offset="0.82" stop-color="#737372" stop-opacity="0.43"></stop><stop offset="1" stop-color="#1d1e1c" stop-opacity="0.7"></stop></linearGradient>
<linearGradient id="Degradado_sin_nombre_34" x1="4.82" y1="7497.72" x2="9.22" y2="7490.09" gradientTransform="matrix(1, 0, 0, -1, 0, 7540.8)" gradientUnits="userSpaceOnUse"><stop offset="0" stop-color="#fff" stop-opacity="0"></stop><stop offset="0.49" stop-color="#d7d8d7" stop-opacity="0.1"></stop><stop offset="0.88" stop-color="#5b5c5b" stop-opacity="0.43"></stop><stop offset="1" stop-color="#1d1e1c" stop-opacity="0.6"></stop></linearGradient>
<linearGradient id="Degradado_sin_nombre_26" x1="38.68" y1="77.23" x2="30.84" y2="72.71" gradientUnits="userSpaceOnUse"><stop offset="0" stop-color="#fff" stop-opacity="0"></stop><stop offset="0.65" stop-color="#b8b8b7" stop-opacity="0.09"></stop><stop offset="1" stop-color="#1d1e1c" stop-opacity="0.3"></stop></linearGradient>
<linearGradient id="Degradado_sin_nombre_28" x1="39.31" y1="74.26" x2="45.17" y2="70.88" gradientUnits="userSpaceOnUse"><stop offset="0" stop-color="#fff" stop-opacity="0"></stop><stop offset="0.69" stop-color="#7e7f7e" stop-opacity="0.23"></stop><stop offset="1" stop-color="#1d1e1c" stop-opacity="0.4"></stop></linearGradient>
<linearGradient id="Degradado_sin_nombre_21" x1="56.56" y1="25.3" x2="42.82" y2="39.04" gradientUnits="userSpaceOnUse"><stop offset="0" stop-color="#fff" stop-opacity="0"></stop><stop offset="0.62" stop-color="#d3d3d3" stop-opacity="0.08"></stop><stop offset="0.95" stop-color="#3f403e" stop-opacity="0.34"></stop><stop offset="1" stop-color="#1d1e1c" stop-opacity="0.4"></stop></linearGradient>
<linearGradient id="Degradado_sin_nombre_21-2" x1="46.55" y1="21.28" x2="23.65" y2="8.05" xlink:href="#Degradado_sin_nombre_21"></linearGradient>
<linearGradient id="Degradado_sin_nombre_21-3" x1="62.05" y1="40.72" x2="77.3" y2="55.97" xlink:href="#Degradado_sin_nombre_21"></linearGradient>
  </defs><g id="Layer_2" data-name="Layer 2"><g id="Capa_1" data-name="Capa 1"><path class="cls-4" d="M17.13,43.12,0,30.2V40.37S12.48,46.8,12.2,46.6,17.13,43.12,17.13,43.12Z"></path><path class="cls-5" d="M17.13,43.1,0,56V45.85s12.48-6.42,12.2-6.22S17.13,43.1,17.13,43.1Z"></path><polygon class="cls-6" points="34.46 66.44 25.71 81.76 35.99 81.89 39.34 65.6 34.46 66.44"></polygon><polygon class="cls-7" points="51.41 81.86 38.85 59.94 37.33 67.34 43.7 81.86 51.41 81.86"></polygon><polygon class="cls-8" points="25.71 4.61 41.1 37.33 77.12 56.28 77.18 45.93 47.34 32.25 35.99 4.86 25.71 4.61"></polygon><rect y="56.15" width="25.71" height="25.71" transform="translate(25.71 138.01) rotate(-180)"></rect><rect class="cls-9" x="5.14" y="61.29" width="15.42" height="15.42" transform="translate(25.71 138.01) rotate(-180)"></rect><circle cx="12.85" cy="69.01" r="2.57"></circle><rect x="51.41" y="56.15" width="25.71" height="25.71" transform="translate(128.54 138.01) rotate(-180)"></rect><rect class="cls-9" x="56.56" y="61.29" width="15.42" height="15.42" transform="translate(128.54 138.01) rotate(-180)"></rect><circle cx="64.27" cy="69.01" r="2.57"></circle><rect y="4.49" width="25.71" height="25.71" transform="translate(25.71 34.68) rotate(180)"></rect><rect class="cls-9" x="5.14" y="9.63" width="15.42" height="15.42" transform="translate(25.71 34.68) rotate(180)"></rect><circle cx="12.85" cy="17.34" r="2.57"></circle><rect x="10.28" y="40.6" width="30.85" height="5.14"></rect><rect x="25.71" y="35.46" width="5.14" height="5.14"></rect><rect x="15.42" y="35.46" width="5.14" height="5.14"></rect><rect x="30.85" y="30.32" width="5.14" height="10.28"></rect><rect x="41.13" y="15.02" width="35.99" height="5.14"></rect><rect x="61.7" y="20.16" width="15.42" height="5.14"></rect><rect x="71.98" y="4.74" width="5.14" height="5.14"></rect><rect x="71.98" y="25.3" width="5.14" height="5.14"></rect><rect x="61.7" y="4.74" width="5.14" height="5.14"></rect><rect x="67.07" y="10.11" width="5.14" height="5.14"></rect><rect x="46.27" y="30.45" width="15.42" height="5.14"></rect><rect x="66.84" y="30.45" width="5.14" height="5.14"></rect><rect x="61.7" y="35.46" width="5.14" height="5.14"></rect><rect x="72.04" y="45.81" width="5.14" height="5.14"></rect><rect x="71.98" y="35.46" width="5.14" height="5.14"></rect><rect x="61.7" y="25.3" width="5.14" height="5.14"></rect><rect x="51.41" y="25.3" width="5.14" height="5.14"></rect><rect x="46.27" y="20.16" width="5.14" height="5.14"></rect><rect x="51.41" y="4.74" width="5.14" height="5.14"></rect><rect x="35.99" y="4.74" width="5.14" height="5.14"></rect><rect x="51.41" y="9.88" width="5.14" height="5.14"></rect><rect x="46.27" y="9.88" width="5.14" height="5.14"></rect><rect x="56.56" y="9.88" width="5.14" height="5.14"></rect><rect x="30.85" y="56.03" width="5.14" height="10.41"></rect><rect x="41.13" y="56.03" width="5.14" height="10.41"></rect><rect x="35.99" y="56.03" width="5.14" height="15.55"></rect><rect x="35.99" y="50.85" width="5.14" height="5.2"></rect><rect x="41.13" y="71.55" width="5.14" height="5.2"></rect><rect x="20.57" y="45.74" width="15.42" height="5.14"></rect><rect x="10.28" y="45.74" width="5.14" height="5.14"></rect><rect x="25.71" y="50.89" width="5.14" height="5.14"></rect><rect x="5.14" y="45.74" width="5.14" height="5.14"></rect><rect x="5.14" y="35.46" width="11.66" height="5.14"></rect><polygon class="cls-10" points="25.71 4.49 35.44 25.3 44.37 25.05 35.99 4.74 25.71 4.49"></polygon><polygon class="cls-11" points="57.03 45.74 77.12 45.74 77.12 56.15 77.12 56.15 57.03 45.74"></polygon></g></g>


  </svg>
