<svg xmlns="http://www.w3.org/2000/svg" width="46.317" height="41.353" viewBox="0 0 46.317 41.353">
  <g id="Group_1367" data-name="Group 1367" transform="translate(-591.341 -281.5)">
    <path id="Path_1" data-name="Path 1" d="M8.688,7.313H43.6c.408,0,.815.017,1.22.05a4.857,4.857,0,0,0-2.933-3.117,10.468,10.468,0,0,0-5.523-.79L7.652,6.615H7.619A8.325,8.325,0,0,0,3.138,8.452a13.458,13.458,0,0,1,5.55-1.139Z" transform="translate(589.126 278.123)" fill="#fff"/>
    <path id="Path_2" data-name="Path 2" d="M41.915,9H8.832a6.9,6.9,0,0,0-6.617,7.146V37.583a6.9,6.9,0,0,0,6.617,7.146H41.915a6.9,6.9,0,0,0,6.617-7.146V16.146A6.9,6.9,0,0,0,41.915,9ZM37,30.437a3.583,3.583,0,1,1,3.308-3.573A3.448,3.448,0,0,1,37,30.437Z" transform="translate(589.126 278.123)" fill="#fff"/>
  </g>
</svg>
